<svg width="256" height="256" fill="none" xmlns="http://www.w3.org/2000/svg"><path d="M45.1 133.8c-6.8 2.1-8.4 8.2-7.7 13.4-6 3-8.5 8.1-6.7 13.8a11.4 11.4 0 0 0 2.6 4c2 2 5.2 3.9 11 3.2 3.7 6.8 9.6 7.8 14 6.5 2.2-.7 9-3.5 7.7-13 7.1-3.8 8.2-9.6 6.8-13.6l-.1-.5c-3-7.3-9.8-7.5-13.6-7l-1-1.4a3 3 0 0 0-.6-.9 11.1 11.1 0 0 0-12.4-4.4z" fill="#fff"/><path d="M59.8 146.4l-2.7.3a2.6 2.6 0 0 1-2.1-1l-1.2-2.3-1-1.7A15.3 15.3 0 0 1 42 160c-1.5.4-3 .6-4.5.7.9 1.3 2.7 2.1 6.3 1.7l2.6-.4a2.7 2.7 0 0 1 2 1.1l1.3 2.3c2.2 4.4 5.2 4.1 6.8 3.6 1.6-.4 4.1-1.8 3.5-6.8l-.3-2.5a2.5 2.5 0 0 1 1.1-2l2.4-1.2c4.5-2.3 4.4-5 3.9-6.6-.5-1.6-2-4.2-7.3-3.4z" fill="#DBDEE2"/><path d="M52.8 141.7a5 5 0 0 0-5.9-2c-1.6.4-4.1 1.8-3.3 7l.4 2.5a2.5 2.5 0 0 1-1.1 2l-2.4 1.3c-4.5 2.3-4.2 5-3.7 6.7.2.6.6 1 1 1.5a15.6 15.6 0 0 0 15-19z" fill="#E5E7E9"/><path d="M210 99.6c-6.2-1.2-10 3-11.6 7.3-6 0-10.2 3-11.2 8.1a9.9 9.9 0 0 0 .3 4.2c.7 2.2 2.5 5 7.3 6.9 0 6.8 4.2 10 8.1 10.6 2 .4 8.6 1 11.7-7 7.1 0 10.4-4.2 11-7.9l.2-.4c.7-7-4.4-9.8-7.7-11V109c0-.3 0-.6-.2-1a9.5 9.5 0 0 0-7.8-8.5z" fill="#fff"/><path d="M216.2 115.3l-2.3-.8a2.3 2.3 0 0 1-1.2-1.7v-4a14 14 0 0 1-16.2 9.9c-1.3-.3-2.6-.7-3.9-1.3.2 1.5 1.3 2.8 4.2 3.9l2.2.8a2.3 2.3 0 0 1 1.2 1.6v2.3c-.1 4.4 2.3 5.3 3.7 5.6 1.5.2 4.1.2 5.7-4l.8-2a2.4 2.4 0 0 1 1.8-1.2h2.3c4.5 0 5.7-2.2 5.9-3.6.2-1.4.2-4-4.2-5.5z" fill="#DBDEE2"/><path d="M212.7 108.8a4.3 4.3 0 0 0-3.6-4c-1.5-.2-4.1-.2-5.6 4.2l-.9 2.1a2.3 2.3 0 0 1-1.7 1.2h-2.3c-4.5 0-5.5 2.2-5.8 3.7l.1 1.6a14.2 14.2 0 0 0 19.8-8.8z" fill="#E5E7E9"/><path d="M71.3 64.3a8.3 8.3 0 0 0-9.5 4 8.2 8.2 0 0 0-8.4 5.9c-.2.6-.3 1.2-.3 1.9v1.3a8.7 8.7 0 0 0 4.3 5.7 8 8 0 0 0 6 8.2 8.4 8.4 0 0 0 9.6-4.1 8.1 8.1 0 0 0 8.1-5.5 7.5 7.5 0 0 0-3.9-9.5v-.8a8 8 0 0 0-6-7.2l.1.1z" fill="#fff"/><path d="M74.2 76.6l-1.6-.7a2 2 0 0 1-.7-1.2l.2-1.6L72 72a9.3 9.3 0 0 1-11.2 5.5c-.8-.2-1.7-.6-2.5-1a4 4 0 0 0 2.5 2.7l1.4.6c.4.3.6.8.7 1.3l-.1 1.5c-.5 2.8 1.2 3.7 2 4 1 .2 2.7.3 4-2.4l.6-1.4a2 2 0 0 1 1.3-.7h1.4c3 .4 3.9-1.1 4.1-1.8.2-.8.8-2.6-2-3.7z" fill="#DBDEE2"/><path d="M72.1 72a2.8 2.8 0 0 0-2.1-3c-1-.2-2.6-.3-3.9 2.4l-.6 1.3a2 2 0 0 1-1.3.7h-1.6c-3-.3-3.8 1.2-4 2-.2.4-.2.8 0 1.1.7.5 1.6.8 2.5 1A9.3 9.3 0 0 0 72 72z" fill="#E5E7E9"/><path d="M186.1 84c-.8-7.4-10.2-7.7-15.7-10A193 193 0 0 0 97 66.6C81.5 72.2 76.5 157 78 173.7c.4 6 7.2 7.2 11.8 8.8a188.2 188.2 0 0 0 77 8.7c15.7-5.2 20.8-90.7 19.4-107.2z" fill="#fff"/><path d="M94 177c12.5 4.6 68.4 16 74.7 3.3 9-29.7 13-60.7 12-91.8 1.9-11.3-78.8-23.9-78.8-11.7-4 15.4-20.3 93-8 100.2z" fill="#DBDEE2"/><path d="M87.5 174.8c11.8 5 69 18.8 74.5 6.1a358 358 0 0 0 12-94.7c2.1-11.6-78.2-20.6-78.9-9-5 16.2-20.4 88.5-7.7 97.6z" fill="#E5E7E9"/><path d="M95 170.2c9.4 2.4 59.2 15.2 61.1 3.6 6-27 9.4-54.6 10.5-82.3a6.1 6.1 0 0 0-4.4-5.9c-9.7-2.1-58.7-13-61.2-1.7-2.7 12.6-18 82.7-6 86.3z" fill="#FAFCFE"/><path d="M97.8 166.4c8 1.6 53.6 12.8 55 4 5-25.2 8.3-50.8 9.7-76.5a4.3 4.3 0 0 0-3.1-4.3c-8-1.4-53.4-11.2-55.2-2.5-2 11.2-15.5 76-6.4 79.3z" fill="#F3F4F5"/><path d="M147 173.7c-16-.7-31.9-3-47.4-6.9a6.8 6.8 0 0 1-5-6.5c.5-10.3 1.3-20.7 2.5-31 11-6 19.7 10.2 19.7 10.3 15.9-14.5 31.8-13.3 41.6-2.6-1.5 10.6-3.2 21.1-5.2 31.6a6.4 6.4 0 0 1-6.2 5.1zM115.8 109c-1 7.7 10.6 8.7 11.6 1.3.9-7.9-10.5-8.7-11.6-1.3z" fill="#DBDEE2"/></svg>
